<svg version="1.1" id="Layer_1" xmlns="http://www.w3.org/2000/svg" xmlns:xlink="http://www.w3.org/1999/xlink" x="0px" y="0px"
	 width="100%" viewBox="0 0 540 500" enable-background="new 0 0 540 500" xml:space="preserve">
<path fill="#010000" opacity="1.000000" stroke="none" 
	d="
M349.000000,501.000000 
	C234.194138,501.000000 119.888245,500.981628 5.582467,501.084686 
	C1.988805,501.087921 0.890639,500.522278 0.893624,496.584473 
	C1.017761,332.790588 1.016877,168.996582 0.893540,5.202694 
	C0.890729,1.469625 1.816134,0.911607 5.295392,0.913538 
	C182.419449,1.011845 359.543549,1.010249 536.667603,0.922872 
	C540.040405,0.921209 541.117310,1.327091 541.114197,5.165725 
	C540.981445,169.126221 540.984985,333.086853 541.100159,497.047394 
	C541.102661,500.565063 540.277039,501.096191 536.954285,501.089691 
	C474.469696,500.967804 411.984833,501.000000 349.000000,501.000000 
z"/>
<path fill="#808080" opacity="1.000000" stroke="none" 
	d="
M167.463715,291.298706 
	C167.069351,246.868851 167.084106,202.789795 166.945374,158.711212 
	C166.925446,152.378006 171.516541,155.991302 174.752899,155.227646 
	C176.982651,158.128708 176.564438,161.015808 176.566864,163.817749 
	C176.597565,199.469330 176.585754,235.120972 176.587021,270.772583 
	C176.587067,272.438507 176.704300,274.113983 176.580841,275.768463 
	C176.278778,279.816803 178.149490,281.635986 182.600464,281.498199 
	C203.547882,281.230255 224.013687,281.428009 244.479019,281.400299 
	C274.430176,281.359711 304.381409,281.407166 334.332611,281.377441 
	C341.085449,281.370728 341.372375,281.077423 341.379700,274.350922 
	C341.422241,235.248047 341.347931,196.145126 341.451019,156.575562 
	C341.645844,153.717957 341.426056,151.308868 341.917847,148.515121 
	C342.126068,147.850235 342.236084,147.598984 342.594910,147.033661 
	C343.400665,146.341415 344.013336,145.938232 344.668854,145.982254 
	C348.963623,146.270660 350.002075,143.638458 350.189819,139.739380 
	C350.454620,139.190308 350.591370,138.987579 351.022095,138.569672 
	C352.383881,137.829681 353.554474,137.793579 354.700928,137.643799 
	C356.361908,137.426788 357.586029,136.740845 357.449402,134.822281 
	C357.311554,132.886353 355.903687,132.468231 354.298645,132.382797 
	C352.974426,132.312286 351.649567,132.376282 349.909058,132.475342 
	C301.451965,132.696640 253.411163,132.570251 205.370438,132.585831 
	C204.040344,132.586258 202.710373,132.546173 200.914520,132.180969 
	C200.137390,131.900833 199.841156,131.749710 199.206909,131.231766 
	C199.194611,123.000031 199.194611,123.000000 207.296005,123.000000 
	C258.727814,122.999992 310.159790,123.053543 361.591156,122.901726 
	C365.857452,122.889137 367.137115,123.744507 367.118958,128.286499 
	C366.925079,176.887970 366.994781,225.490479 366.731689,274.816162 
	C362.706238,276.054535 359.341827,276.979523 359.791443,282.281555 
	C359.523834,282.825439 359.384155,283.027649 358.941284,283.443726 
	C353.840271,283.563995 351.743164,286.181885 351.298584,291.051819 
	C350.793915,291.544952 350.543915,291.700836 349.865723,292.015076 
	C347.640594,292.621216 345.804199,292.595978 343.975006,292.596466 
	C287.211243,292.612274 230.447464,292.619476 173.683701,292.595642 
	C172.684875,292.595215 171.686218,292.571777 170.197876,292.399475 
	C169.045059,292.187988 168.417984,291.964874 167.463715,291.298706 
z"/>
<path fill="#808080" opacity="1.000000" stroke="none" 
	d="
M151.396423,307.302094 
	C151.000595,299.000183 151.000595,299.002258 159.107544,298.998566 
	C161.096481,298.997650 163.085419,298.978577 165.537292,298.900757 
	C166.765686,298.271210 167.545517,297.734528 168.945480,297.411377 
	C226.848953,297.462524 284.276428,297.339935 341.703400,297.493164 
	C346.276001,297.505371 349.469421,296.607300 350.743958,291.350739 
	C351.034149,290.965881 351.000000,291.000000 350.982910,291.017090 
	C354.674347,289.734833 358.466827,288.520538 358.789612,283.256195 
	C359.034149,282.965851 359.000000,283.000000 358.982910,283.017090 
	C362.674347,281.734833 366.466827,280.520538 366.789612,275.256195 
	C367.034149,274.965851 366.999481,275.000092 366.981934,275.017029 
	C373.791962,275.022980 380.623413,275.142120 387.445374,274.939880 
	C390.354309,274.853668 391.066101,275.882263 391.053406,278.649902 
	C390.955109,300.131836 390.944305,321.614716 391.061188,343.096466 
	C391.077484,346.084625 390.374176,347.515686 387.206024,347.006317 
	C384.117401,346.509674 382.400482,347.533051 382.997833,350.980042 
	C383.584320,354.364441 381.979034,355.503387 378.829956,354.994629 
	C375.728516,354.493500 374.505371,355.807983 374.997345,358.858459 
	C375.512695,362.053497 374.294434,363.540009 370.949738,363.006287 
	C368.056702,362.544617 366.422852,363.489166 366.999237,366.736633 
	C367.642761,370.362244 365.948181,371.074036 362.568207,371.069641 
	C290.793854,370.976379 219.019287,370.971130 147.244965,371.081848 
	C143.594299,371.087524 142.897552,369.891815 142.927399,366.542938 
	C143.083237,349.058655 142.999893,331.572235 143.000046,314.086578 
	C143.000107,307.002228 143.000458,307.002228 150.547394,306.999908 
	C152.810944,309.097412 152.530701,311.667236 152.538300,314.136780 
	C152.580353,327.775879 152.635162,341.415894 152.508377,355.053711 
	C152.469406,359.244690 153.501755,361.910431 158.760727,361.515808 
	C174.720169,361.227966 190.207123,361.414520 205.693268,361.404175 
	C252.655838,361.372833 299.618439,361.393005 346.581024,361.392334 
	C348.246338,361.392303 349.912781,361.431519 351.576691,361.367554 
	C356.701385,361.170532 357.315491,360.652893 357.361023,355.510590 
	C357.476013,342.521729 357.333038,329.531708 357.480042,316.070557 
	C357.536194,313.144257 357.249451,310.666962 358.305908,307.911011 
	C359.052826,306.897064 359.680542,306.100067 360.461670,306.106903 
	C364.827179,306.145142 365.744751,303.079865 366.648926,299.432251 
	C367.355103,298.684631 367.844391,298.084717 368.485291,298.090576 
	C372.731812,298.129303 373.863678,295.340118 374.498749,291.573059 
	C375.980194,289.659882 377.943451,289.916077 379.641846,289.450867 
	C381.198059,289.024597 381.633789,287.864380 381.451355,286.416412 
	C381.313812,285.324890 380.653564,284.649384 379.525482,284.534912 
	C378.038696,284.384155 376.972076,284.920868 376.538635,286.439423 
	C376.139160,287.839050 376.318542,289.405670 375.082489,290.895538 
	C370.885071,292.095306 367.629944,293.738770 367.179993,298.769653 
	C362.362183,299.874725 360.022949,302.921844 358.480865,307.400970 
	C355.957367,308.824524 353.591125,308.607117 351.278625,308.607849 
	C287.059570,308.628143 222.840530,308.628143 158.621475,308.608429 
	C156.308014,308.607697 153.939865,308.812775 151.396423,307.302094 
z"/>
<path fill="#808080" opacity="1.000000" stroke="none" 
	d="
M191.170883,139.207916 
	C190.904785,138.540939 190.965042,138.217545 190.972961,137.892868 
	C191.140137,131.033997 191.138977,131.033966 198.430267,130.919189 
	C198.868896,130.864929 199.036667,131.034821 199.120758,131.119553 
	C201.763519,137.881836 200.164444,140.263947 192.731201,140.076019 
	C192.016403,139.826324 191.744644,139.688629 191.170883,139.207916 
z"/>
<path fill="#808080" opacity="1.000000" stroke="none" 
	d="
M183.108490,147.166870 
	C182.881577,146.508301 182.956741,146.187088 182.966522,145.863922 
	C183.173538,139.033798 183.172104,139.033752 190.430344,138.919189 
	C190.868896,138.864929 191.036667,139.034805 191.120758,139.119537 
	C192.799133,141.331146 192.446686,143.661743 191.724335,146.407257 
	C189.646210,148.719986 187.287521,148.292801 184.563202,148.016953 
	C183.889923,147.772522 183.635010,147.637909 183.108490,147.166870 
z"/>
<path fill="#808080" opacity="1.000000" stroke="none" 
	d="
M174.914917,154.919022 
	C174.876923,154.515213 174.954773,154.194717 174.964951,153.872101 
	C175.180527,147.041794 175.179047,147.041748 182.401901,146.898529 
	C182.836868,146.830414 183.001740,146.998825 183.084534,147.082687 
	C184.716354,149.167542 184.307022,151.423386 183.875473,154.069855 
	C183.582275,154.716019 183.426529,154.956528 182.918579,155.445068 
	C180.325790,156.499512 178.085220,156.563110 175.505966,155.429901 
	C175.167313,155.166550 174.999222,155.001358 174.914917,154.919022 
z"/>
<path fill="#010000" opacity="1.000000" stroke="none" 
	d="
M166.839737,291.126312 
	C167.527954,290.975891 167.952118,291.003998 168.687943,291.099243 
	C169.347672,291.510010 169.520294,291.930267 169.456421,292.759949 
	C168.964722,293.737305 168.397232,294.128906 167.329559,294.135162 
	C165.923157,293.248901 165.800018,292.347626 166.839737,291.126312 
z"/>
<path fill="#000000" opacity="1.000000" stroke="none" 
	d="
M167.000000,294.375000 
	C167.493927,293.737854 167.987854,293.475708 168.740875,293.106750 
	C170.141342,294.217529 170.070038,295.510040 168.897095,297.096069 
	C168.277649,297.372437 167.999146,297.402283 167.360321,297.216064 
	C167.000000,296.250000 167.000000,295.500000 167.000000,294.375000 
z"/>
<path fill="#010000" opacity="1.000000" stroke="none" 
	d="
M166.764160,297.147461 
	C167.000000,297.000000 167.500000,297.000000 167.750000,297.000000 
	C168.152451,297.180847 168.304916,297.361694 168.248688,297.829468 
	C167.559845,298.395874 167.079697,298.675385 166.299911,298.894287 
	C166.176285,298.320740 166.352310,297.807831 166.764160,297.147461 
z"/>
<path fill="#C0C0C0" opacity="1.000000" stroke="none" 
	d="
M342.485352,154.587158 
	C342.916870,196.215073 342.892181,237.529846 343.093781,278.843506 
	C343.115631,283.324280 340.747711,283.022766 337.781128,283.020142 
	C302.462738,282.988800 267.144318,283.003906 231.825897,282.998230 
	C215.832825,282.995667 199.839767,282.973938 183.373550,282.918335 
	C181.276627,281.105652 181.411224,278.880035 181.408783,276.739380 
	C181.364700,238.177994 181.361755,199.616577 181.404892,161.055176 
	C181.406937,159.228897 181.422913,157.384064 182.699524,155.326599 
	C182.989777,154.919525 182.991882,154.991867 182.955704,154.990829 
	C184.860840,153.336334 187.229248,153.396622 189.554520,153.395233 
	C238.447647,153.365936 287.340790,153.369644 336.233917,153.393723 
	C338.222626,153.394699 340.240662,153.321838 342.485352,154.587158 
z"/>
<path fill="#C0C0C0" opacity="1.000000" stroke="none" 
	d="
M191.254364,147.234802 
	C190.953781,144.597672 191.005997,142.318466 191.131531,139.621765 
	C191.531601,139.153397 191.857025,139.069763 192.185318,139.056442 
	C198.927689,138.783005 198.927750,138.784622 199.131348,131.632004 
	C208.031540,131.136185 216.858185,131.011505 225.684875,131.009659 
	C267.174316,131.000977 308.663757,131.026031 350.626343,131.081665 
	C352.834290,133.416641 352.687897,135.828461 351.282776,138.691696 
	C351.010223,139.080490 351.008118,139.008133 351.044312,139.009186 
	C347.316376,140.247742 343.546753,141.479599 343.241882,146.778839 
	C343.010223,147.080490 343.008118,147.008148 343.044312,147.009186 
	C341.135040,148.667221 338.761505,148.605927 336.431580,148.607285 
	C290.103668,148.634415 243.775772,148.637711 197.447861,148.605255 
	C195.453049,148.603851 193.431427,148.634567 191.254364,147.234802 
z"/>
<path fill="#000000" opacity="1.000000" stroke="none" 
	d="
M168.438049,298.240295 
	C168.031876,297.930389 168.023743,297.744354 168.007797,297.279175 
	C169.228668,296.184662 168.949844,294.908081 168.999924,293.366058 
	C168.999985,292.592499 168.999985,292.185028 168.999802,291.471954 
	C180.970032,291.110931 192.940414,291.012573 204.910843,291.007568 
	C253.304810,290.987213 301.698792,290.995575 350.563446,290.979614 
	C350.947296,298.999969 350.947296,299.000000 342.867859,299.000000 
	C286.796692,299.000031 230.725494,299.007568 174.654327,298.968109 
	C172.719177,298.966766 170.664795,299.589264 168.438049,298.240295 
z"/>
<path fill="#FFFFFF" opacity="1.000000" stroke="none" 
	d="
M190.473938,146.926575 
	C241.311508,146.918991 291.721436,146.961105 342.605896,147.006714 
	C343.045715,149.350998 343.010956,151.691772 342.925964,154.466599 
	C289.873322,154.932678 236.870972,154.964722 183.394073,154.993286 
	C182.957367,152.667404 182.995209,150.345016 183.100189,147.594589 
	C185.460297,147.103119 187.753296,147.039673 190.473938,146.926575 
z"/>
<path fill="#FFFFFF" opacity="1.000000" stroke="none" 
	d="
M182.554230,154.951843 
	C182.983643,197.266037 182.977509,239.612564 182.935898,282.417419 
	C175.000122,283.185394 174.998291,283.185394 175.000290,275.254425 
	C175.010284,235.527298 175.021332,195.800186 175.099655,155.619812 
	C177.484436,155.105743 179.801575,155.044952 182.554230,154.951843 
z"/>
<path fill="#FFFFFF" opacity="1.000000" stroke="none" 
	d="
M351.459839,139.048080 
	C351.016602,136.719696 351.023010,134.358902 351.064453,131.561188 
	C352.080139,131.082993 353.061920,131.059494 354.041260,130.997086 
	C356.976318,130.810150 359.173462,130.689026 359.183289,135.082077 
	C359.193695,139.712006 356.603027,139.026505 353.874634,139.001938 
	C353.219666,138.996033 352.564514,139.010544 351.459839,139.048080 
z"/>
<path fill="#FFFFFF" opacity="1.000000" stroke="none" 
	d="
M343.459167,147.048096 
	C343.007812,146.749695 343.000092,146.418854 343.003845,146.088135 
	C343.096069,137.998154 342.074036,139.102722 350.625549,139.006775 
	C351.058441,139.340454 351.021515,139.670471 351.016602,140.000946 
	C350.913269,146.978806 350.913971,146.978821 343.459167,147.048096 
z"/>
<path fill="#000000" opacity="1.000000" stroke="none" 
	d="
M358.581360,282.979492 
	C359.024841,283.298553 359.009338,283.631226 359.007233,283.963959 
	C358.962524,290.989655 358.962769,290.989655 351.418671,291.020508 
	C350.975128,290.701447 350.990692,290.368774 350.992798,290.036041 
	C351.037537,283.010315 351.037231,283.010315 358.581360,282.979492 
z"/>
<path fill="#000000" opacity="1.000000" stroke="none" 
	d="
M366.581360,274.979492 
	C367.024841,275.298553 367.009308,275.631226 367.007202,275.963959 
	C366.962494,282.989655 366.962769,282.989655 359.418671,283.020508 
	C358.975128,282.701447 358.990662,282.368774 358.992798,282.036041 
	C359.037537,275.010315 359.037231,275.010315 366.581360,274.979492 
z"/>
<path fill="#C0C0C0" opacity="1.000000" stroke="none" 
	d="
M358.484161,314.586243 
	C358.917053,329.392090 358.829620,343.885834 359.086365,358.373444 
	C359.154327,362.209137 357.903259,363.098419 354.250275,363.077393 
	C328.763641,362.930847 303.275757,363.004669 277.788269,362.998901 
	C238.474411,362.990021 199.160553,362.973938 159.373550,362.918335 
	C157.055969,360.778595 157.412506,358.189117 157.399826,355.730225 
	C157.343124,344.741516 157.345718,333.752411 157.386627,322.763611 
	C157.418259,314.268799 158.275345,313.393890 166.911469,313.389313 
	C224.853012,313.358521 282.794586,313.346252 340.736053,313.422180 
	C346.518585,313.429749 352.382141,312.521912 358.484161,314.586243 
z"/>
<path fill="#FFFFFF" opacity="1.000000" stroke="none" 
	d="
M358.925903,314.466553 
	C295.221130,314.933777 231.566544,314.967438 167.911957,314.999390 
	C159.000031,315.003876 159.003540,315.000031 158.999146,323.966003 
	C158.992950,336.630371 158.980927,349.294708 158.935898,362.417419 
	C151.000107,363.185730 151.000046,363.185730 151.000015,355.267914 
	C150.999969,339.490997 151.000000,323.714050 150.999908,307.468445 
	C150.999802,306.999786 151.000000,307.000000 150.999908,306.999878 
	C220.018021,307.005127 289.036224,307.010437 358.486511,307.013794 
	C358.937775,309.352020 358.956940,311.692230 358.925903,314.466553 
z"/>
<path fill="#C0C0C0" opacity="1.000000" stroke="none" 
	d="
M358.991699,307.043060 
	C358.991119,306.751434 358.991669,306.421478 358.997314,306.091583 
	C359.132599,298.198151 357.877716,299.062408 366.548706,298.989563 
	C366.975616,299.298645 366.991333,299.628357 366.989410,299.957947 
	C366.941650,308.202454 367.728119,306.856232 359.373840,307.007477 
	C358.918640,307.011780 358.995239,307.004761 358.991699,307.043060 
z"/>
<path fill="#C0C0C0" opacity="1.000000" stroke="none" 
	d="
M367.015503,299.015930 
	C367.023407,298.703156 367.006714,298.374298 367.009583,298.045654 
	C367.079742,289.986420 366.129242,291.090881 374.548828,290.989563 
	C374.975586,291.297699 374.991943,291.626465 374.989288,291.955109 
	C374.924042,300.027100 375.857056,298.905609 367.419739,298.980103 
	C366.968109,298.968994 367.000000,299.000000 367.015503,299.015930 
z"/>
<path fill="#C0C0C0" opacity="1.000000" stroke="none" 
	d="
M375.015503,291.015930 
	C375.020782,289.882690 375.108124,288.722656 374.981598,287.586395 
	C374.629761,284.426880 375.417725,282.757263 379.162781,282.891296 
	C382.203369,283.000183 382.968445,283.989960 383.104187,286.916901 
	C383.282928,290.772278 381.387238,291.332306 378.333801,291.012177 
	C377.521515,290.927002 376.693298,290.994049 375.420227,290.980103 
	C374.968109,290.968994 375.000000,291.000000 375.015503,291.015930 
z"/>
<path fill="#808080" opacity="1.000000" stroke="none" 
	d="
M191.399506,267.303864 
	C191.010406,264.593201 191.020813,262.187561 191.063263,259.331055 
	C193.323303,257.087555 195.954849,257.557526 198.984985,257.546936 
	C235.238220,257.214111 271.010071,257.497864 306.781372,257.391876 
	C318.312653,257.357727 317.353638,258.231232 317.390045,246.959549 
	C317.462067,224.664322 317.301971,202.368729 317.489197,179.591690 
	C316.886017,172.732910 316.829712,172.614105 310.224365,172.608292 
	C273.560059,172.576019 236.895721,172.605377 200.231415,172.575134 
	C197.423615,172.572815 194.546967,172.973053 191.476608,171.415161 
	C191.073318,170.787369 191.033676,170.455353 191.031555,170.123093 
	C190.976715,161.552704 190.558273,163.031479 198.228592,163.022888 
	C240.839569,162.975174 283.450623,163.000000 326.530273,163.000000 
	C328.711365,164.920898 328.603271,167.304428 328.605835,169.622604 
	C328.639191,199.901917 328.665283,230.181305 328.594147,260.460510 
	C328.577698,267.459473 327.454559,268.582001 320.410614,268.593475 
	C279.483673,268.660278 238.556625,268.635712 197.629608,268.608521 
	C195.639603,268.607178 193.618729,268.660889 191.399506,267.303864 
z"/>
<path fill="#FFFFFF" opacity="1.000000" stroke="none" 
	d="
M191.000000,267.449463 
	C234.639771,266.999237 278.279755,266.938385 321.918945,267.098541 
	C326.096893,267.113861 327.120758,266.003326 327.098389,261.876465 
	C326.921448,229.230850 326.999939,196.583878 326.999390,163.468658 
	C327.832123,163.000000 328.683136,163.111130 329.495728,162.981384 
	C333.788452,162.296036 335.139648,163.831146 335.112000,168.367691 
	C334.905792,202.197510 334.924255,236.029556 335.095612,269.859772 
	C335.117035,274.093658 333.846771,275.100739 329.759155,275.087616 
	C285.929199,274.946747 242.098572,275.016052 198.268173,274.985748 
	C190.035599,274.980072 191.106659,275.982605 191.000000,267.449463 
z"/>
<path fill="#000000" opacity="1.000000" stroke="none" 
	d="
M191.053070,171.578690 
	C232.538681,171.079956 273.981934,171.066757 315.425018,170.972992 
	C321.782715,170.958603 317.917877,175.670685 318.901581,178.551834 
	C316.285797,181.233582 313.158478,180.569641 310.235138,180.574127 
	C277.289062,180.624695 244.342850,180.604889 211.396683,180.605759 
	C209.899139,180.605789 208.401260,180.585876 206.904099,180.614258 
	C201.018021,180.725769 200.638580,181.023727 200.625046,186.858597 
	C200.576004,207.990646 200.622192,229.122849 200.589142,250.254944 
	C200.585007,252.894501 200.923218,255.601456 199.321640,258.466980 
	C196.655746,258.882538 194.311554,258.929443 191.531342,258.928284 
	C191.067093,229.932770 191.038879,200.985336 191.053070,171.578690 
z"/>
<path fill="#000000" opacity="1.000000" stroke="none" 
	d="
M311.330811,339.411682 
	C297.297516,339.098724 283.666443,339.041138 270.035309,339.003448 
	C262.987854,338.983948 262.987823,338.999878 263.052338,331.567169 
	C264.944611,329.286896 267.332947,329.411682 269.642609,329.407593 
	C291.879974,329.368317 314.117371,329.371216 336.354767,329.404694 
	C338.338379,329.407684 340.358978,329.343689 342.525330,330.799133 
	C343.139526,338.999969 343.139526,338.997986 335.407776,339.000732 
	C330.269104,339.002533 325.130402,339.011078 319.531738,339.082336 
	C316.727661,340.746094 314.268616,340.743835 311.330811,339.411682 
z"/>
<path fill="#808080" opacity="1.000000" stroke="none" 
	d="
M342.937286,330.664429 
	C316.608673,331.089111 290.311493,331.056244 263.554138,331.072815 
	C262.838196,321.050476 262.604980,323.074249 270.679932,323.035583 
	C292.418243,322.931458 314.157501,322.962799 335.896179,323.019897 
	C343.649933,323.040283 343.001160,321.770844 342.937286,330.664429 
z"/>
<path fill="#008000" opacity="1.000000" stroke="none" 
	d="
M190.468445,338.684509 
	C191.255615,346.999908 191.255615,346.999908 183.453995,347.000000 
	C182.955963,347.000000 182.457916,347.000031 181.959885,347.000000 
	C174.970245,346.999695 174.970245,346.999695 175.095734,339.448792 
	C180.045151,336.414673 185.068192,337.246246 190.468445,338.684509 
z"/>
<path fill="#00FF00" opacity="1.000000" stroke="none" 
	d="
M190.904251,338.551819 
	C185.914703,339.000244 180.996048,339.000122 175.622009,339.000183 
	C174.744370,331.000092 174.744370,331.000092 182.545868,331.000000 
	C183.043930,330.999969 183.541977,330.999969 184.040039,331.000000 
	C191.029785,331.000305 191.029785,331.000305 190.904251,338.551819 
z"/>
<path fill="#808080" opacity="1.000000" stroke="none" 
	d="
M310.953247,339.587372 
	C313.343536,339.108673 315.758423,339.069214 318.622559,339.088928 
	C319.048004,340.129395 318.975403,341.112457 319.009918,342.091766 
	C319.105682,344.807495 319.367188,347.088867 315.196564,347.146088 
	C310.928589,347.204651 310.745575,345.053314 310.990753,341.989471 
	C311.042725,341.339722 310.985046,340.681122 310.953247,339.587372 
z"/>
<path fill="#0000FF" opacity="1.000000" stroke="none" 
	d="
M199.464539,258.902405 
	C198.999954,233.886368 199.114685,208.936020 198.890091,183.988754 
	C198.851486,179.700806 200.126022,178.888138 204.154648,178.905090 
	C242.076920,179.064819 280.000153,179.000015 318.379395,178.999969 
	C318.890106,204.480347 318.847107,229.961731 319.096252,255.440262 
	C319.137024,259.609253 316.830078,259.003784 314.355713,259.002838 
	C276.213531,258.988464 238.071335,258.979401 199.464539,258.902405 
z"/>
<path fill="#000000" opacity="1.000000" stroke="none" 
	d="
M223.520828,195.303497 
	C223.119217,194.669632 223.039856,194.341309 223.030243,194.010941 
	C222.825989,187.000854 222.827515,187.000259 229.614349,187.000107 
	C244.591446,186.999771 259.569580,187.093750 274.544800,186.927261 
	C277.854034,186.890488 279.307709,187.489365 279.100769,191.200027 
	C278.891663,194.949158 277.396240,199.856537 279.779785,202.228912 
	C282.160339,204.598267 287.042572,202.938660 290.820557,202.966522 
	C302.999573,203.056381 303.000061,203.000000 302.999969,214.945648 
	C302.999878,225.762436 302.912445,236.580399 303.059052,247.395203 
	C303.096954,250.192963 302.328766,251.084610 299.452179,251.061813 
	C283.144806,250.932632 266.835632,250.943619 250.527649,251.027145 
	C244.144852,251.059845 248.131683,246.295685 247.096954,243.449295 
	C249.263077,241.117294 251.837067,241.596207 254.765381,241.554016 
	C265.874756,241.337769 276.527008,241.547348 287.178040,241.446320 
	C293.029907,241.390823 293.402283,241.012177 293.448151,235.204865 
	C293.492859,229.546127 293.520294,223.885971 293.437225,218.227905 
	C293.361633,213.078888 292.898804,212.754929 287.603790,212.529358 
	C282.304993,212.303635 276.952209,213.228424 271.307861,211.569183 
	C269.170258,209.152252 269.553131,206.565399 269.518433,203.603973 
	C269.114716,196.627930 269.078339,196.560669 262.520264,196.528687 
	C252.376465,196.479218 242.232361,196.551895 231.634399,196.473083 
	C228.714035,196.441772 226.205826,196.796524 223.520828,195.303497 
z"/>
<path fill="#808080" opacity="1.000000" stroke="none" 
	d="
M255.410431,242.489014 
	C252.747604,242.917068 250.394104,242.958878 247.603333,243.000885 
	C247.099808,240.627838 247.033539,238.254578 246.901459,235.440704 
	C245.170273,232.797134 245.561844,230.230637 245.548645,227.262299 
	C245.638382,221.715805 244.813049,216.600464 246.507538,211.174713 
	C249.250214,209.164932 251.834686,209.314774 254.883804,210.551743 
	C256.027435,211.785538 256.418213,212.896805 256.407959,214.056427 
	C256.325134,223.408463 257.514282,232.793335 255.410431,242.489014 
z"/>
<path fill="#808080" opacity="1.000000" stroke="none" 
	d="
M223.098831,195.462997 
	C225.516922,195.007690 227.867783,195.016479 230.660126,195.074921 
	C231.826462,195.864685 232.304642,196.781784 232.325089,197.781097 
	C232.517960,207.203522 233.211624,216.635193 231.689011,226.474319 
	C229.109283,228.857117 226.559830,228.693222 223.544922,227.327026 
	C223.121063,216.643066 223.076324,206.285080 223.098831,195.462997 
z"/>
<path fill="#000000" opacity="1.000000" stroke="none" 
	d="
M223.096741,227.449951 
	C225.516586,226.992264 227.867386,226.983459 230.659637,226.924957 
	C236.075333,224.549927 241.136688,225.080475 246.611267,226.707230 
	C246.989471,229.373795 246.978943,231.746948 246.902039,234.560089 
	C241.207596,235.000046 235.579544,235.000168 229.951492,234.999954 
	C222.966858,234.999710 222.966858,234.999603 223.096741,227.449951 
z"/>
<path fill="#FFFFFF" opacity="1.000000" stroke="none" 
	d="
M255.560150,242.933228 
	C255.068115,232.609726 255.035110,222.344208 255.006592,211.620178 
	C259.917389,208.243530 265.054749,209.271881 270.595337,210.553192 
	C277.993530,210.888977 284.988342,211.045654 291.979431,210.944290 
	C294.361725,210.909760 295.094879,211.565994 295.055206,213.991776 
	C294.913605,222.653259 294.840729,231.322922 295.084930,239.979828 
	C295.171936,243.063904 293.701141,243.035187 291.507202,243.024887 
	C279.678070,242.969269 267.848541,242.994141 255.560150,242.933228 
z"/>
<path fill="#FFFFFF" opacity="1.000000" stroke="none" 
	d="
M247.000000,226.533630 
	C242.005157,226.997482 237.010315,226.994324 231.558289,226.933197 
	C231.073959,216.597717 231.046783,206.320175 231.060638,195.583603 
	C242.809891,195.083038 254.521469,195.186218 266.224426,194.915390 
	C269.930634,194.829636 271.778137,195.609360 271.021088,199.630371 
	C270.871033,200.427551 270.991974,201.275742 270.910767,202.550049 
	C268.445526,205.067764 265.532288,204.340561 262.797272,204.461960 
	C260.499268,204.563980 258.166077,204.709015 255.896500,204.436447 
	C251.266098,203.880325 248.247375,205.297501 247.406631,210.636841 
	C247.107361,216.014069 247.053680,221.040344 247.000000,226.533630 
z"/>
<path fill="#0000FF" opacity="1.000000" stroke="none" 
	d="
M247.595795,210.991974 
	C246.754364,203.000031 246.754364,203.000046 254.479248,203.000000 
	C259.625732,202.999985 264.772217,202.999939 270.376129,202.999802 
	C270.889099,205.321426 270.944641,207.643143 271.000153,210.399109 
	C265.979370,210.894318 260.958588,210.955292 255.474457,211.088974 
	C252.684235,211.106506 250.357407,211.051331 247.595795,210.991974 
z"/>
</svg>